<svg id="Layer_1" data-name="Layer 1" xmlns="http://www.w3.org/2000/svg" viewBox="0 0 500 500"><defs><style>.cls-1{fill:#d28f53;}.cls-2{opacity:0.2;}.cls-3,.cls-4{fill:none;stroke:#000;stroke-width:20px;}.cls-3{stroke-linecap:round;stroke-linejoin:round;}.cls-4{stroke-miterlimit:10;}</style></defs><title>basketball</title><path class="cls-1" d="M82.34,82.34c-92.59,92.6-92.59,242.72,0,335.32s242.72,92.59,335.32,0,92.59-242.72,0-335.32S174.94-10.25,82.34,82.34Z"/><path class="cls-2" d="M417.66,82.34A238.25,238.25,0,0,0,380.49,52c60.78,92,50.66,217.12-30.37,298.15S144,441.27,52,380.49a238.25,238.25,0,0,0,30.37,37.17c92.6,92.59,242.72,92.59,335.32,0S510.25,174.94,417.66,82.34Z"/><ellipse class="cls-3" cx="279.15" cy="279.15" rx="233.46" ry="195.88" transform="translate(-115.63 279.15) rotate(-45)"/><line class="cls-3" x1="82.34" y1="82.34" x2="417.66" y2="417.66"/><path class="cls-3" d="M26.79,191.05s85,.07,119.67,119.68,50.1,144.9,95.75,176.19"/><path class="cls-3" d="M191.05,26.79s.07,85,119.68,119.67,144.9,50.1,176.19,95.75"/><path class="cls-4" d="M82.34,82.34c-92.59,92.6-92.59,242.72,0,335.32s242.72,92.59,335.32,0,92.59-242.72,0-335.32S174.94-10.25,82.34,82.34Z"/></svg>